PathFileType	4	(X/Y/Z)	C:/Users/beibeiliu/ov580/test_trc/User2\sequence.17_training_dense_right.trc
DataRate	CameraRate	NumFrames	NumMarkers	Units	OrigDataRate	OrigDataStartFrame	OrigNumFrames
120	120	12	19	mm	120	1	38
Frame#	Time	ThumbCMC			ThumbMCP			ThumbIP			ThumbTip			IndexMCP			IndexPIP			IndexTip			MiddleMCP			MiddlePIP			MiddleTip			RingMCP			RingPIP			RingTip			PinkyMCP			PinkyPIP			PinkyTip			BackHand1			BackHand2			BackHand3	
		X0	Y0	Z0	X1	Y1	Z1	X2	Y2	Z2	X3	Y3	Z3	X4	Y4	Z4	X5	Y5	Z5	X6	Y6	Z6	X7	Y7	Z7	X8	Y8	Z8	X9	Y9	Z9	X10	Y10	Z10	X11	Y11	Z11	X12	Y12	Z12	X13	Y13	Z13	X14	Y14	Z14	X15	Y15	Z15	X16	Y16	Z16	X17	Y17	Z17	X18	Y18	Z18	
0	0	117.027	63.0594	-26.9602	89.1584	57.2886	-60.1084	85.7303	38.5843	-93.25	94.4532	19.8215	-111.21	149.517	86.481	-97.5781	147.575	99.5056	-124.786	147.942	112.674	-143.807	171.391	59.1346	-107.889	173.982	65.8487	-137.776	182.04	66.7095	-168.369	153.4	28.1266	-112.533	125.294	17.6731	-125.784	99.8984	10.2809	-99.5011	150.022	6.03155	-99.2733	117.307	-1.7276	-104.114	100.103	0.5666	-78.3362	175.01	32.5532	-52.2236	177.198	31.9154	-16.269	160.295	63.4385	-30.4622	
1	0.00833333	101.58	57.3663	-28.7446	81.0066	43.8246	-55.406	82.4132	27.6017	-92.4339	90.7255	12.2607	-112.085	127.701	90.8165	-92.6011	122.55	106.569	-117.497	122.888	117.429	-142.507	153.734	74.8042	-101.635	158.386	84.4728	-135.624	166.903	90.0707	-163.364	145.463	39.1128	-112.101	128.061	18.2721	-125.005	101.345	7.71507	-98.2336	149.465	14.2239	-96.9891	118.804	-1.85268	-100.996	105.248	2.59155	-71.8823	166.098	43.7966	-49.6147	168.359	41.0359	-14.4254	144.486	70.2249	-29.3101	
2	0.0166667	89.3017	47.8835	-22.9254	75.5638	31.6674	-57.397	78.3661	16.9058	-92.8578	95.5047	6.09791	-110.195	111.045	88.1241	-91.0621	102.362	101.095	-111.987	101.973	112.196	-137.587	141.083	80.6045	-103.297	144.026	90.6233	-131.4	153.089	99.3116	-160.292	142.238	40.1605	-109.688	124.49	20.9625	-123.522	104.916	2.34174	-97.3343	147.765	17.7031	-97.6033	123.445	-3.79438	-99.0757	108.934	-3.14599	-72.1761	158.3	49.2586	-48.78	162.525	45.9257	-15.3084	132.183	68.8999	-26.0083	
3	0.025	81.9126	39.5532	-26.8879	68.1736	20.0478	-57.2887	78.7059	5.65507	-93.8869	97.5973	-4.84383	-111.293	99.6075	79.812	-90.1764	90.89	92.4364	-118.071	90.8753	101.292	-141.906	136.616	73.25	-101.552	139.93	83.7779	-132.9	146.917	91.5443	-159.323	137.593	36.6274	-110.7	122.109	10.0144	-122.21	105.185	-4.4505	-94.7054	146.867	13.9545	-94.866	125.101	-8.99124	-97.5477	109.544	-9.03885	-65.3318	149.998	50.6198	-47.3831	153.004	43.9525	-11.6803	118.948	65.9904	-29.6215	
4	0.0333333	74.8559	31.7676	-28.631	65.0082	8.90026	-56.7936	74.6137	-7.92846	-90.8001	97.9576	-17.5408	-106.42	93.3412	68.7146	-96.8568	83.6483	76.7483	-118.823	82.8774	82.8039	-146.104	125.687	63.1411	-100.005	131.659	70.3897	-135.402	138.075	77.2355	-160.34	134.31	27.277	-104.474	118.104	-0.180218	-119.511	102.716	-16.1442	-90.6207	145.737	4.07529	-89.5225	119.432	-21.3826	-91.2922	107.252	-17.8397	-61.2249	143.858	43.0631	-43.9789	149.351	41.1187	-10.8599	116.096	56.5922	-27.3843	
5	0.0416667	68.4504	23.7099	-28.3349	60.3695	-1.59905	-52.3302	67.9928	-22.1226	-79.7887	89.973	-33.0071	-96.3001	82.0318	53.0567	-97.7869	77.771	56.6151	-125.794	67.3176	63.7441	-151.174	120.093	47.0983	-102.656	125.389	49.6901	-134.673	128.624	53.7346	-162.59	126.557	12.7952	-105.578	117.024	-15.4852	-116.025	97.2726	-27.0822	-88.8645	138.636	-11.2542	-86.9517	115.483	-32.4852	-86.2333	98.4563	-30.7467	-53.3632	140.033	33.2206	-46.5449	138.859	37.3734	-13.5723	108.004	50.4454	-32.8188	
6	0.05	62.3283	18.1033	-23.0248	47.622	-10.3863	-44.8573	55.8198	-36.3296	-73.6289	77.5594	-50.5597	-87.2129	72.8674	37.8596	-98.0067	61.3704	39.2737	-124.477	59.7511	38.4654	-151.111	107.53	32.7696	-103.816	111.522	29.5391	-135.24	116.637	27.8084	-165.444	119.411	-5.29656	-100.569	105.679	-33.5768	-106.149	87.7405	-42.9134	-76.9071	127.277	-21.6021	-78.1109	104.384	-48.2608	-71.9591	86.9734	-39.1395	-43.4639	128.604	27.5035	-42.9868	128.95	33.902	-10.9685	97.6914	44.502	-32.4507	
7	0.0583333	53.9389	20.6122	-13.1095	37.3953	-11.3017	-33.13	40.5047	-41.0845	-56.2667	60.6864	-59.3078	-71.5197	60.2564	28.1398	-94.7904	50.3934	22.65	-122.468	42.1602	21.6652	-148.04	96.9266	14.8003	-103.281	96.489	7.15275	-134.017	101.24	-2.0092	-166.057	103.826	-22.4379	-92.7502	86.9893	-49.3819	-92.406	67.5801	-49.9707	-63.5906	112.812	-34.3545	-68.3765	87.3293	-55.3353	-60.6961	70.86	-44.148	-31.1034	119.888	18.7586	-46.4751	125.022	30.5534	-9.86406	90.9123	43.0197	-29.8266	
8	0.0666667	53.4586	28.5727	-10.9315	26.7682	1.34058	-18.4556	21.4726	-29.5865	-35.0871	32.5621	-55.0271	-48.7022	50.1949	24.09	-90.1223	35.93	20.9812	-112.623	27.2607	15.7594	-134.24	81.5184	3.13162	-96.9604	74.4229	-11.0867	-128.19	71.2138	-21.0103	-150.644	81.2513	-26.8058	-81.2553	58.837	-50.5246	-78.3531	44.2261	-45.6343	-42.263	89.2263	-44.2539	-57.117	59.865	-52.4929	-42.0304	55.2817	-36.4178	-15.9407	114.841	8.05973	-43.2764	124.532	22.0252	-13.7111	92.841	40.0975	-28.704	
9	0.075	55.9372	53.2128	-0.87508	20.6617	30.3978	-5.83852	2.54898	2.71409	-18.24	5.07546	-26.4418	-31.7058	44.122	38.6162	-83.0691	26.232	40.8191	-100.194	10.589	35.2705	-125.817	61.071	11.9904	-92.2975	47.613	-3.39339	-117.704	37.9844	-13.2997	-139.358	54.8606	-18.0918	-69.5098	26.1469	-30.5666	-60.9389	18.6915	-19.1444	-26.2228	60.8244	-35.7608	-44.9622	33.1245	-32.0466	-25.6131	37.3988	-8.36199	-4.20938	100.058	11.8423	-36.8412	119.018	19.2989	-13.5656	96.7699	45.4816	-27.2971	
10	0.0833333	66.6889	72.5678	0.408989	23.8471	68.7415	2.48074	-5.96631	48.009	-3.05492	-13.0016	19.2814	-12.8661	42.773	63.2061	-72.7245	20.3688	68.579	-95.0616	5.46846	63.9745	-113.756	44.2568	27.5722	-81.8812	25.4334	17.5408	-102.484	5.41908	9.63436	-123.719	26.3458	4.44226	-56.3859	-0.297304	5.25752	-41.3018	2.50946	20.8901	-8.2607	32.7239	-10.6376	-31.2014	12.2369	4.26443	-9.90969	31.7191	25.4529	10.4129	89.145	18.3788	-32.1712	114.668	21.4747	-10.9599	96.5669	52.1684	-24.7895	
11	0.0916667	81.6704	87.7272	3.51697	42.8061	95.8429	6.82444	2.25968	87.8842	3.38654	-17.389	66.3684	-1.01427	42.7519	83.0669	-70.444	23.3257	89.877	-89.9465	4.69791	95.1925	-109.341	33.3776	49.2244	-72.1856	5.89054	44.2433	-92.3127	-16.8364	43.939	-110.613	10.1571	34.4819	-44.4277	-12.6321	44.7827	-25.5573	1.64441	62.6612	5.02812	11.9895	25.0115	-20.8759	3.03818	43.6836	5.69499	30.268	53.0149	20.0909	71.4084	23.2597	-31.2412	101.233	20.8096	-10.283	93.4288	58.1853	-28.5966	
